<?xml version="1.0" encoding="UTF-8"?>
<svg id="Layer_2" data-name="Layer 2" xmlns="http://www.w3.org/2000/svg" viewBox="0 0 362.7 416.02">
  <defs>
    <style>
      .cls-1 {
        fill: #231f20;
      }

      .cls-2, .cls-3 {
        fill: #f2f2f0;
      }

      .cls-2, .cls-4 {
        stroke: #ed1c24;
        stroke-width: .25px;
      }

      .cls-2, .cls-4, .cls-5 {
        stroke-miterlimit: 10;
      }

      .cls-4 {
        fill: none;
      }

      .cls-5 {
        fill: #ed1c24;
        stroke: #f2f2f0;
        stroke-width: 4px;
      }
    </style>
  </defs>
  <g id="Layer_1" data-name="Layer 1">
    <g>
      <g>
        <rect class="cls-5" x="2" y="2" width="358.7" height="412.02" rx="12.7" ry="12.7"/>
        <rect class="cls-5" x="10.53" y="12.46" width="341.65" height="391.11"/>
      </g>
      <g>
        <g>
          <path class="cls-1" d="M141.03,328.89l-102.36,2.92V30.99h157.51c27.29,0,50.69,5.71,70.19,17.13,38.44,21.73,57.66,53.06,57.66,94.01,0,18.38-5.01,35.38-15.04,50.97-10.03,15.6-23.68,27.86-40.95,36.77,14.76,11.42,31.75,18.38,50.97,20.89v87.32c-34.26-3.62-72.28-15.73-114.06-36.35-17.55-8.36-33.84-18.38-48.88-30.08v-83.98h10.45c3.9,0,7.38-.42,10.45-1.25,3.06-.84,6.4-2.09,10.03-3.76,17.27-7.52,25.9-19.36,25.9-35.51,0-14.48-6.83-25.21-20.47-32.17-4.74-2.23-10.73-3.9-17.97-5.01-7.25-1.11-14.62-1.67-22.14-1.67l-11.28,1.25v219.35Z"/>
          <path class="cls-3" d="M141.03,328.89l-102.36,2.92V30.99h157.51c27.29,0,50.69,5.71,70.19,17.13,38.44,21.73,57.66,53.06,57.66,94.01,0,18.38-5.01,35.38-15.04,50.97-10.03,15.6-23.68,27.86-40.95,36.77,14.76,11.42,31.75,18.38,50.97,20.89v87.32c-34.26-3.62-72.28-15.73-114.06-36.35-17.55-8.36-33.84-18.38-48.88-30.08v-83.98h10.45c3.9,0,7.38-.42,10.45-1.25,3.06-.84,6.4-2.09,10.03-3.76,17.27-7.52,25.9-19.36,25.9-35.51,0-14.48-6.83-25.21-20.47-32.17-4.74-2.23-10.73-3.9-17.97-5.01-7.25-1.11-14.62-1.67-22.14-1.67l-11.28,1.25v219.35Z"/>
          <path class="cls-4" d="M141.03,328.89l-102.36,2.92V30.99h157.51c27.29,0,50.69,5.71,70.19,17.13,38.44,21.73,57.66,53.06,57.66,94.01,0,18.38-5.01,35.38-15.04,50.97-10.03,15.6-23.68,27.86-40.95,36.77,14.76,11.42,31.75,18.38,50.97,20.89v87.32c-34.26-3.62-72.28-15.73-114.06-36.35-17.55-8.36-33.84-18.38-48.88-30.08v-83.98h10.45c3.9,0,7.38-.42,10.45-1.25,3.06-.84,6.4-2.09,10.03-3.76,17.27-7.52,25.9-19.36,25.9-35.51,0-14.48-6.83-25.21-20.47-32.17-4.74-2.23-10.73-3.9-17.97-5.01-7.25-1.11-14.62-1.67-22.14-1.67l-11.28,1.25v219.35Z"/>
        </g>
        <g>
          <path class="cls-2" d="M59.46,384.63h-6.06l-4.9-12.12h-2.67v12.12h-5.63v-29.75h8.16c3.1,0,5.51.69,7.22,2.08,1.85,1.52,2.77,3.79,2.77,6.81,0,3.92-1.48,6.45-4.45,7.59l5.55,13.26ZM52.72,363.69c0-2.75-1.33-4.12-4-4.12h-2.9v8.24h2.9c2.67,0,4-1.37,4-4.12Z"/>
          <path class="cls-2" d="M81.74,384.63h-5.41l-1.42-6.28h-7.79l-1.58,6.28h-5.42l7.31-29.75h7.22l7.1,29.75ZM73.75,373.32l-2.75-12.04h-.08l-2.79,12.04h5.62Z"/>
          <path class="cls-2" d="M111.82,354.88l-6.45,29.75h-5.44l-4.11-20.36h-.09s-4.44,20.36-4.44,20.36h-5.37l-6.16-29.75h5.25l3.94,19.42h.07s4.04-19.42,4.04-19.42h5.43l4.08,19.43h.05s3.92-19.43,3.92-19.43h5.3Z"/>
          <path class="cls-2" d="M132.83,384.63h-2.94l-.86-2.49c-1.66,1.93-3.42,2.9-5.26,2.9-6.2,0-9.3-3.32-9.3-9.96v-10.65c0-6.64,3.1-9.96,9.3-9.96,5.82,0,8.84,3.36,9.06,10.08h-5.63c0-3.37-1.14-5.06-3.43-5.06-2.45,0-3.67,1.4-3.67,4.2v12.12c0,2.8,1.22,4.2,3.67,4.2,1.52,0,2.53-.68,3.02-2.04.27-.74.41-2.04.41-3.92h-3.96v-4.69h9.59v15.26Z"/>
          <path class="cls-2" d="M154.79,384.63h-6.06l-4.9-12.12h-2.67v12.12h-5.63v-29.75h8.16c3.1,0,5.51.69,7.22,2.08,1.85,1.52,2.78,3.79,2.78,6.81,0,3.92-1.48,6.45-4.45,7.59l5.55,13.26ZM148.05,363.69c0-2.75-1.33-4.12-4-4.12h-2.9v8.24h2.9c2.67,0,4-1.37,4-4.12Z"/>
          <path class="cls-2" d="M177.07,384.63h-5.41l-1.42-6.28h-7.79l-1.58,6.28h-5.42l7.31-29.75h7.22l7.1,29.75ZM169.08,373.32l-2.75-12.04h-.08l-2.79,12.04h5.62Z"/>
          <path class="cls-2" d="M197.67,374.3c0,6.88-3.43,10.32-10.28,10.32h-7.83v-29.75h7.83c6.86,0,10.28,3.43,10.28,10.28v9.14ZM192.04,373.65v-7.83c0-1.96-.33-3.39-.98-4.29-.76-1.09-2.07-1.63-3.92-1.63h-1.96v19.71h1.96c3.26,0,4.9-1.99,4.9-5.96Z"/>
          <path class="cls-2" d="M216.65,384.63h-15.83v-29.75h15.43v5.02h-9.79v6.86h7.47v5.02h-7.47v7.83h10.2v5.02Z"/>
          <path class="cls-2" d="M237.95,374.3c0,6.88-3.43,10.32-10.28,10.32h-7.83v-29.75h7.83c6.86,0,10.28,3.43,10.28,10.28v9.14ZM232.32,373.65v-7.83c0-1.96-.33-3.39-.98-4.29-.76-1.09-2.07-1.63-3.92-1.63h-1.96v19.71h1.96c3.26,0,4.9-1.99,4.9-5.96Z"/>
          <path class="cls-2" d="M247.05,384.63h-5.79v-5.84h5.79v5.84Z"/>
          <path class="cls-2" d="M267.37,375.08c0,6.64-3.1,9.96-9.3,9.96s-9.3-3.32-9.3-9.96v-10.65c0-6.64,3.1-9.96,9.3-9.96s9.3,3.35,9.3,10.04h-5.63c0-1.69-.19-2.88-.57-3.59-.54-.95-1.58-1.43-3.1-1.43-2.45,0-3.67,1.4-3.67,4.2v12.12c0,2.8,1.22,4.2,3.67,4.2,1.77,0,2.88-.65,3.35-1.96.22-.62.33-2.04.33-4.24h5.63v1.27Z"/>
          <path class="cls-2" d="M289.04,375.08c0,6.64-3.1,9.96-9.3,9.96s-9.3-3.32-9.3-9.96v-10.65c0-6.64,3.1-9.96,9.3-9.96s9.3,3.32,9.3,9.96v10.65ZM283.41,375.81v-12.12c0-2.8-1.22-4.2-3.67-4.2s-3.67,1.4-3.67,4.2v12.12c0,2.8,1.22,4.2,3.67,4.2s3.67-1.4,3.67-4.2Z"/>
          <path class="cls-2" d="M320.22,384.63h-4.82v-23.42l-6.08,23.42h-4.24l-6.08-23.42v23.42h-4.82v-29.75h7.77l5.16,19.56h.17l5.16-19.56h7.77v29.75Z"/>
        </g>
      </g>
    </g>
  </g>
</svg>