<?xml version="1.0" encoding="UTF-8"?>
<svg id="Layer_3" data-name="Layer 3" xmlns="http://www.w3.org/2000/svg" viewBox="0 0 374 493.29">
  <defs>
    <style>
      .cls-1 {
        fill: #231f20;
      }

      .cls-2, .cls-3 {
        fill: #f2f2f0;
      }

      .cls-2, .cls-4 {
        stroke: #ed1c24;
        stroke-width: .25px;
      }

      .cls-2, .cls-4, .cls-5 {
        stroke-miterlimit: 10;
      }

      .cls-4 {
        fill: none;
      }

      .cls-5 {
        fill: #ed1c24;
        stroke: #f2f2f0;
        stroke-width: 4px;
      }
    </style>
  </defs>
  <g id="Layer_1" data-name="Layer 1">
    <g>
      <g>
        <rect class="cls-5" x="2" y="2" width="370" height="489.29" rx="12.7" ry="12.7"/>
        <rect class="cls-5" x="10.79" y="14.42" width="352.41" height="464.45"/>
      </g>
      <g>
        <g>
          <path class="cls-1" d="M142.33,374.12l-113.41,3.24V44.06h174.52c30.24,0,56.16,6.33,77.77,18.98,42.59,24.07,63.88,58.79,63.88,104.16,0,20.37-5.55,39.2-16.66,56.48-11.11,17.29-26.23,30.86-45.37,40.74,16.35,12.66,35.18,20.37,56.48,23.15v96.75c-37.96-4.01-80.08-17.43-126.38-40.27-19.44-9.26-37.5-20.37-54.16-33.33v-93.05h11.57c4.32,0,8.17-.46,11.57-1.39,3.39-.93,7.1-2.31,11.11-4.17,19.13-8.33,28.7-21.45,28.7-39.35,0-16.04-7.57-27.93-22.68-35.64-5.25-2.47-11.88-4.32-19.91-5.56-8.03-1.23-16.2-1.85-24.53-1.85l-12.5,1.39v243.03Z"/>
          <path class="cls-3" d="M142.33,374.12l-113.41,3.24V44.06h174.52c30.24,0,56.16,6.33,77.77,18.98,42.59,24.07,63.88,58.79,63.88,104.16,0,20.37-5.55,39.2-16.66,56.48-11.11,17.29-26.23,30.86-45.37,40.74,16.35,12.66,35.18,20.37,56.48,23.15v96.75c-37.96-4.01-80.08-17.43-126.38-40.27-19.44-9.26-37.5-20.37-54.16-33.33v-93.05h11.57c4.32,0,8.17-.46,11.57-1.39,3.39-.93,7.1-2.31,11.11-4.17,19.13-8.33,28.7-21.45,28.7-39.35,0-16.04-7.57-27.93-22.68-35.64-5.25-2.47-11.88-4.32-19.91-5.56-8.03-1.23-16.2-1.85-24.53-1.85l-12.5,1.39v243.03Z"/>
          <path class="cls-4" d="M142.33,374.12l-113.41,3.24V44.06h174.52c30.24,0,56.16,6.33,77.77,18.98,42.59,24.07,63.88,58.79,63.88,104.16,0,20.37-5.55,39.2-16.66,56.48-11.11,17.29-26.23,30.86-45.37,40.74,16.35,12.66,35.18,20.37,56.48,23.15v96.75c-37.96-4.01-80.08-17.43-126.38-40.27-19.44-9.26-37.5-20.37-54.16-33.33v-93.05h11.57c4.32,0,8.17-.46,11.57-1.39,3.39-.93,7.1-2.31,11.11-4.17,19.13-8.33,28.7-21.45,28.7-39.35,0-16.04-7.57-27.93-22.68-35.64-5.25-2.47-11.88-4.32-19.91-5.56-8.03-1.23-16.2-1.85-24.53-1.85l-12.5,1.39v243.03Z"/>
        </g>
        <g>
          <path class="cls-2" d="M60.17,448.58h-9.57l-7.73-19.14h-4.22v19.14h-8.89v-46.98h12.89c4.9,0,8.7,1.1,11.41,3.29,2.92,2.41,4.38,5.99,4.38,10.76,0,6.19-2.34,10.18-7.02,11.99l8.77,20.94ZM49.54,415.52c0-4.34-2.11-6.51-6.32-6.51h-4.58v13.02h4.58c4.21,0,6.32-2.17,6.32-6.51Z"/>
          <path class="cls-2" d="M95.35,448.58h-8.55l-2.24-9.92h-12.31l-2.5,9.92h-8.56l11.54-46.98h11.4l11.21,46.98ZM82.75,430.73l-4.34-19.01h-.13l-4.4,19.01h8.87Z"/>
          <path class="cls-2" d="M142.85,401.6l-10.18,46.98h-8.6l-6.49-32.16h-.15s-7.02,32.16-7.02,32.16h-8.48l-9.73-46.98h8.29l6.22,30.67h.11s6.38-30.67,6.38-30.67h8.57l6.44,30.67h.07s6.18-30.67,6.18-30.67h8.37Z"/>
          <path class="cls-2" d="M176.03,448.58h-4.64l-1.35-3.93c-2.62,3.05-5.39,4.58-8.31,4.58-9.79,0-14.69-5.24-14.69-15.72v-16.82c0-10.48,4.9-15.72,14.69-15.72,9.19,0,13.96,5.31,14.31,15.92h-8.89c0-5.33-1.8-7.99-5.41-7.99-3.87,0-5.8,2.21-5.8,6.64v19.14c0,4.42,1.93,6.64,5.8,6.64,2.41,0,4-1.07,4.77-3.22.43-1.16.64-3.22.64-6.19h-6.25v-7.41h15.14v24.1Z"/>
          <path class="cls-2" d="M210.7,448.58h-9.57l-7.73-19.14h-4.22v19.14h-8.89v-46.98h12.89c4.9,0,8.7,1.1,11.41,3.29,2.92,2.41,4.38,5.99,4.38,10.76,0,6.19-2.34,10.18-7.02,11.99l8.77,20.94ZM200.07,415.52c0-4.34-2.11-6.51-6.32-6.51h-4.58v13.02h4.58c4.21,0,6.32-2.17,6.32-6.51Z"/>
          <path class="cls-2" d="M245.89,448.58h-8.55l-2.24-9.92h-12.31l-2.5,9.92h-8.56l11.54-46.98h11.4l11.21,46.98ZM233.28,430.73l-4.34-19.01h-.13l-4.4,19.01h8.87Z"/>
          <path class="cls-2" d="M278.43,432.27c0,10.87-5.41,16.3-16.24,16.3h-12.37v-46.98h12.37c10.83,0,16.24,5.41,16.24,16.24v14.43ZM269.53,431.24v-12.37c0-3.09-.52-5.35-1.55-6.77-1.2-1.72-3.27-2.58-6.19-2.58h-3.09v31.12h3.09c5.16,0,7.73-3.14,7.73-9.41Z"/>
          <path class="cls-2" d="M308.39,448.58h-25v-46.98h24.36v7.93h-15.47v10.83h11.79v7.93h-11.79v12.37h16.11v7.93Z"/>
          <path class="cls-2" d="M342.03,432.27c0,10.87-5.41,16.3-16.24,16.3h-12.37v-46.98h12.37c10.83,0,16.24,5.41,16.24,16.24v14.43ZM333.14,431.24v-12.37c0-3.09-.52-5.35-1.55-6.77-1.2-1.72-3.27-2.58-6.19-2.58h-3.09v31.12h3.09c5.16,0,7.73-3.14,7.73-9.41Z"/>
        </g>
      </g>
    </g>
  </g>
</svg>