<?xml version="1.0" encoding="UTF-8"?>
<svg id="Layer_3" data-name="Layer 3" xmlns="http://www.w3.org/2000/svg" viewBox="0 0 372.46 491.25">
  <defs>
    <style>
      .cls-1 {
        fill: #231f20;
      }

      .cls-2, .cls-3 {
        fill: #f2f2f0;
      }

      .cls-2, .cls-4 {
        stroke: #ed1c24;
        stroke-width: .25px;
      }

      .cls-2, .cls-4, .cls-5 {
        stroke-miterlimit: 10;
      }

      .cls-4 {
        fill: none;
      }

      .cls-5 {
        fill: #ed1c24;
        stroke: #f2f2f0;
        stroke-width: 4px;
      }
    </style>
  </defs>
  <g id="Layer_1" data-name="Layer 1">
    <g>
      <g>
        <rect class="cls-5" x="2" y="2" width="368.46" height="487.25" rx="12.7" ry="12.7"/>
        <rect class="cls-5" x="10.76" y="14.36" width="350.94" height="462.52"/>
      </g>
      <g>
        <g>
          <path class="cls-1" d="M143.03,375.52l-112.94,3.23V46.84h173.79c30.12,0,55.93,6.3,77.45,18.9,42.41,23.97,63.62,58.55,63.62,103.72,0,20.28-5.53,39.03-16.6,56.24-11.06,17.22-26.12,30.73-45.18,40.57,16.29,12.61,35.03,20.28,56.24,23.05v96.35c-37.8-4-79.75-17.36-125.85-40.11-19.36-9.22-37.34-20.28-53.94-33.19v-92.66h11.52c4.3,0,8.14-.46,11.52-1.38,3.38-.92,7.07-2.3,11.06-4.15,19.05-8.3,28.58-21.36,28.58-39.18,0-15.98-7.53-27.81-22.59-35.5-5.23-2.46-11.83-4.3-19.82-5.53-8-1.22-16.13-1.84-24.43-1.84l-12.45,1.38v242.02Z"/>
          <path class="cls-3" d="M143.03,375.52l-112.94,3.23V46.84h173.79c30.12,0,55.93,6.3,77.45,18.9,42.41,23.97,63.62,58.55,63.62,103.72,0,20.28-5.53,39.03-16.6,56.24-11.06,17.22-26.12,30.73-45.18,40.57,16.29,12.61,35.03,20.28,56.24,23.05v96.35c-37.8-4-79.75-17.36-125.85-40.11-19.36-9.22-37.34-20.28-53.94-33.19v-92.66h11.52c4.3,0,8.14-.46,11.52-1.38,3.38-.92,7.07-2.3,11.06-4.15,19.05-8.3,28.58-21.36,28.58-39.18,0-15.98-7.53-27.81-22.59-35.5-5.23-2.46-11.83-4.3-19.82-5.53-8-1.22-16.13-1.84-24.43-1.84l-12.45,1.38v242.02Z"/>
          <path class="cls-4" d="M143.03,375.52l-112.94,3.23V46.84h173.79c30.12,0,55.93,6.3,77.45,18.9,42.41,23.97,63.62,58.55,63.62,103.72,0,20.28-5.53,39.03-16.6,56.24-11.06,17.22-26.12,30.73-45.18,40.57,16.29,12.61,35.03,20.28,56.24,23.05v96.35c-37.8-4-79.75-17.36-125.85-40.11-19.36-9.22-37.34-20.28-53.94-33.19v-92.66h11.52c4.3,0,8.14-.46,11.52-1.38,3.38-.92,7.07-2.3,11.06-4.15,19.05-8.3,28.58-21.36,28.58-39.18,0-15.98-7.53-27.81-22.59-35.5-5.23-2.46-11.83-4.3-19.82-5.53-8-1.22-16.13-1.84-24.43-1.84l-12.45,1.38v242.02Z"/>
        </g>
        <g>
          <path class="cls-2" d="M49.14,443.96h-6.8l-5.49-13.6h-3v13.6h-6.32v-33.39h9.16c3.48,0,6.18.78,8.11,2.33,2.08,1.71,3.11,4.26,3.11,7.65,0,4.4-1.66,7.24-4.99,8.52l6.23,14.88ZM41.58,420.46c0-3.08-1.5-4.63-4.49-4.63h-3.25v9.25h3.25c2.99,0,4.49-1.54,4.49-4.62Z"/>
          <path class="cls-2" d="M74.14,443.96h-6.07l-1.59-7.05h-8.75l-1.78,7.05h-6.08l8.2-33.39h8.11l7.97,33.39ZM65.18,431.27l-3.08-13.51h-.09l-3.13,13.51h6.3Z"/>
          <path class="cls-2" d="M107.89,410.57l-7.24,33.39h-6.11l-4.61-22.85h-.11s-4.99,22.85-4.99,22.85h-6.03l-6.92-33.39h5.89l4.42,21.8h.08s4.53-21.8,4.53-21.8h6.09l4.58,21.8h.05s4.39-21.8,4.39-21.8h5.95Z"/>
          <path class="cls-2" d="M131.48,443.96h-3.3l-.96-2.79c-1.86,2.17-3.83,3.25-5.91,3.25-6.96,0-10.44-3.72-10.44-11.17v-11.95c0-7.45,3.48-11.17,10.44-11.17,6.53,0,9.92,3.77,10.17,11.31h-6.32c0-3.79-1.28-5.68-3.85-5.68-2.75,0-4.12,1.57-4.12,4.72v13.6c0,3.15,1.37,4.72,4.12,4.72,1.71,0,2.84-.76,3.39-2.29.3-.82.46-2.29.46-4.4h-4.44v-5.27h10.76v17.13Z"/>
          <path class="cls-2" d="M156.12,443.96h-6.8l-5.49-13.6h-3v13.6h-6.32v-33.39h9.16c3.48,0,6.18.78,8.11,2.33,2.08,1.71,3.11,4.26,3.11,7.65,0,4.4-1.66,7.24-4.99,8.52l6.23,14.88ZM148.56,420.46c0-3.08-1.5-4.63-4.49-4.63h-3.25v9.25h3.25c2.99,0,4.49-1.54,4.49-4.62Z"/>
          <path class="cls-2" d="M181.12,443.96h-6.07l-1.59-7.05h-8.75l-1.78,7.05h-6.08l8.2-33.39h8.11l7.97,33.39ZM172.16,431.27l-3.08-13.51h-.09l-3.13,13.51h6.3Z"/>
          <path class="cls-2" d="M204.25,432.37c0,7.72-3.85,11.59-11.54,11.59h-8.79v-33.39h8.79c7.69,0,11.54,3.85,11.54,11.54v10.26ZM197.93,431.64v-8.79c0-2.2-.37-3.8-1.1-4.81-.86-1.22-2.32-1.83-4.4-1.83h-2.2v22.12h2.2c3.66,0,5.5-2.23,5.5-6.69Z"/>
          <path class="cls-2" d="M225.55,443.96h-17.77v-33.39h17.31v5.63h-10.99v7.69h8.38v5.63h-8.38v8.79h11.45v5.63Z"/>
          <path class="cls-2" d="M249.45,432.37c0,7.72-3.85,11.59-11.54,11.59h-8.79v-33.39h8.79c7.69,0,11.54,3.85,11.54,11.54v10.26ZM243.13,431.64v-8.79c0-2.2-.37-3.8-1.1-4.81-.86-1.22-2.32-1.83-4.4-1.83h-2.2v22.12h2.2c3.66,0,5.5-2.23,5.5-6.69Z"/>
          <path class="cls-2" d="M259.67,443.96h-6.5v-6.55h6.5v6.55Z"/>
          <path class="cls-2" d="M282.47,433.24c0,7.45-3.48,11.17-10.44,11.17s-10.44-3.72-10.44-11.17v-11.95c0-7.45,3.48-11.17,10.44-11.17s10.44,3.75,10.44,11.27h-6.32c0-1.89-.21-3.24-.64-4.03-.61-1.07-1.77-1.6-3.48-1.6-2.75,0-4.12,1.57-4.12,4.72v13.6c0,3.15,1.37,4.72,4.12,4.72,1.98,0,3.24-.73,3.76-2.2.24-.7.37-2.29.37-4.76h6.32v1.42Z"/>
          <path class="cls-2" d="M306.79,433.24c0,7.45-3.48,11.17-10.44,11.17s-10.44-3.72-10.44-11.17v-11.95c0-7.45,3.48-11.17,10.44-11.17s10.44,3.72,10.44,11.17v11.95ZM300.47,434.06v-13.6c0-3.14-1.37-4.72-4.12-4.72s-4.12,1.57-4.12,4.72v13.6c0,3.15,1.37,4.72,4.12,4.72s4.12-1.57,4.12-4.72Z"/>
          <path class="cls-2" d="M341.78,443.96h-5.4v-26.29l-6.82,26.29h-4.76l-6.82-26.29h0v26.29h-5.4v-33.39h8.72l5.79,21.95h.2l5.79-21.95h8.72v33.39Z"/>
        </g>
      </g>
    </g>
  </g>
</svg>