<?xml version="1.0" encoding="UTF-8"?>
<svg id="Layer_2" data-name="Layer 2" xmlns="http://www.w3.org/2000/svg" viewBox="0 0 374 429">
  <defs>
    <style>
      .cls-1 {
        fill: #231f20;
      }

      .cls-2, .cls-3 {
        fill: #f2f2f0;
      }

      .cls-2, .cls-4 {
        stroke: #ed1c24;
        stroke-width: .25px;
      }

      .cls-2, .cls-4, .cls-5 {
        stroke-miterlimit: 10;
      }

      .cls-4 {
        fill: none;
      }

      .cls-5 {
        fill: #ed1c24;
        stroke: #f2f2f0;
        stroke-width: 4px;
      }
    </style>
  </defs>
  <g id="Layer_1" data-name="Layer 1">
    <g>
      <g>
        <rect class="cls-5" x="2" y="2" width="370" height="425" rx="12.7" ry="12.7"/>
        <rect class="cls-5" x="10.79" y="12.78" width="352.41" height="403.43"/>
      </g>
      <g>
        <g>
          <path class="cls-1" d="M145.41,333.18l-105.59,3.02V25.9h162.48c28.15,0,52.29,5.89,72.4,17.67,39.65,22.41,59.47,54.73,59.47,96.97,0,18.96-5.17,36.49-15.52,52.58-10.34,16.09-24.42,28.73-42.24,37.93,15.23,11.78,32.75,18.96,52.58,21.55v90.07c-35.34-3.74-74.56-16.23-117.66-37.49-18.1-8.62-34.91-18.96-50.42-31.03v-86.63h10.77c4.02,0,7.61-.43,10.77-1.29,3.16-.86,6.61-2.15,10.34-3.88,17.81-7.76,26.72-19.97,26.72-36.63,0-14.94-7.04-26-21.12-33.18-4.89-2.3-11.06-4.02-18.53-5.17-7.47-1.14-15.08-1.72-22.84-1.72l-11.64,1.29v226.26Z"/>
          <path class="cls-3" d="M145.41,333.18l-105.59,3.02V25.9h162.48c28.15,0,52.29,5.89,72.4,17.67,39.65,22.41,59.47,54.73,59.47,96.97,0,18.96-5.17,36.49-15.52,52.58-10.34,16.09-24.42,28.73-42.24,37.93,15.23,11.78,32.75,18.96,52.58,21.55v90.07c-35.34-3.74-74.56-16.23-117.66-37.49-18.1-8.62-34.91-18.96-50.42-31.03v-86.63h10.77c4.02,0,7.61-.43,10.77-1.29,3.16-.86,6.61-2.15,10.34-3.88,17.81-7.76,26.72-19.97,26.72-36.63,0-14.94-7.04-26-21.12-33.18-4.89-2.3-11.06-4.02-18.53-5.17-7.47-1.14-15.08-1.72-22.84-1.72l-11.64,1.29v226.26Z"/>
          <path class="cls-4" d="M145.41,333.18l-105.59,3.02V25.9h162.48c28.15,0,52.29,5.89,72.4,17.67,39.65,22.41,59.47,54.73,59.47,96.97,0,18.96-5.17,36.49-15.52,52.58-10.34,16.09-24.42,28.73-42.24,37.93,15.23,11.78,32.75,18.96,52.58,21.55v90.07c-35.34-3.74-74.56-16.23-117.66-37.49-18.1-8.62-34.91-18.96-50.42-31.03v-86.63h10.77c4.02,0,7.61-.43,10.77-1.29,3.16-.86,6.61-2.15,10.34-3.88,17.81-7.76,26.72-19.97,26.72-36.63,0-14.94-7.04-26-21.12-33.18-4.89-2.3-11.06-4.02-18.53-5.17-7.47-1.14-15.08-1.72-22.84-1.72l-11.64,1.29v226.26Z"/>
        </g>
        <g>
          <path class="cls-2" d="M68.92,402.5h-8.91l-7.2-17.82h-3.93v17.82h-8.28v-43.74h12c4.56,0,8.1,1.02,10.62,3.06,2.72,2.24,4.08,5.58,4.08,10.02,0,5.76-2.18,9.48-6.54,11.16l8.16,19.5ZM59.02,371.72c0-4.04-1.96-6.06-5.88-6.06h-4.26v12.12h4.26c3.92,0,5.88-2.02,5.88-6.06Z"/>
          <path class="cls-2" d="M101.68,402.5h-7.96l-2.08-9.24h-11.46l-2.33,9.24h-7.97l10.74-43.74h10.62l10.44,43.74ZM89.94,385.88l-4.04-17.7h-.12l-4.1,17.7h8.26Z"/>
          <path class="cls-2" d="M145.89,358.77l-9.48,43.74h-8l-6.04-29.94h-.14s-6.54,29.94-6.54,29.94h-7.9l-9.06-43.74h7.72l5.79,28.55h.11s5.94-28.55,5.94-28.55h7.98l6,28.56h.07s5.76-28.56,5.76-28.56h7.8Z"/>
          <path class="cls-2" d="M176.79,402.5h-4.32l-1.26-3.66c-2.44,2.84-5.02,4.26-7.74,4.26-9.12,0-13.68-4.88-13.68-14.64v-15.66c0-9.76,4.56-14.64,13.68-14.64,8.56,0,13,4.94,13.32,14.82h-8.28c0-4.96-1.68-7.44-5.04-7.44-3.6,0-5.4,2.06-5.4,6.18v17.82c0,4.12,1.8,6.18,5.4,6.18,2.24,0,3.72-1,4.44-3,.4-1.08.6-3,.6-5.76h-5.82v-6.9h14.1v22.44Z"/>
          <path class="cls-2" d="M209.07,402.5h-8.91l-7.2-17.82h-3.93v17.82h-8.28v-43.74h12c4.56,0,8.1,1.02,10.62,3.06,2.72,2.24,4.08,5.58,4.08,10.02,0,5.76-2.18,9.48-6.54,11.16l8.16,19.5ZM199.17,371.72c0-4.04-1.96-6.06-5.88-6.06h-4.26v12.12h4.26c3.92,0,5.88-2.02,5.88-6.06Z"/>
          <path class="cls-2" d="M241.82,402.5h-7.96l-2.08-9.24h-11.46l-2.33,9.24h-7.97l10.74-43.74h10.62l10.44,43.74ZM230.09,385.88l-4.04-17.7h-.12l-4.1,17.7h8.26Z"/>
          <path class="cls-2" d="M272.12,387.32c0,10.12-5.04,15.18-15.12,15.18h-11.52v-43.74h11.52c10.08,0,15.12,5.04,15.12,15.12v13.44ZM263.84,386.36v-11.52c0-2.88-.48-4.98-1.44-6.3-1.12-1.6-3.04-2.4-5.76-2.4h-2.88v28.98h2.88c4.8,0,7.2-2.92,7.2-8.76Z"/>
          <path class="cls-2" d="M300.02,402.5h-23.28v-43.74h22.68v7.38h-14.4v10.08h10.98v7.38h-10.98v11.52h15v7.38Z"/>
          <path class="cls-2" d="M331.33,387.32c0,10.12-5.04,15.18-15.12,15.18h-11.52v-43.74h11.52c10.08,0,15.12,5.04,15.12,15.12v13.44ZM323.05,386.36v-11.52c0-2.88-.48-4.98-1.44-6.3-1.12-1.6-3.04-2.4-5.76-2.4h-2.88v28.98h2.88c4.8,0,7.2-2.92,7.2-8.76Z"/>
        </g>
      </g>
    </g>
  </g>
</svg>