<?xml version="1.0" encoding="UTF-8"?>
<svg id="Layer_2" data-name="Layer 2" xmlns="http://www.w3.org/2000/svg" viewBox="0 0 362.7 416.02">
  <defs>
    <style>
      .cls-1 {
        fill: #231f20;
      }

      .cls-2 {
        fill: #f2f2f0;
      }

      .cls-3 {
        fill: none;
        stroke: #ed1c24;
        stroke-width: .25px;
      }

      .cls-3, .cls-4 {
        stroke-miterlimit: 10;
      }

      .cls-4 {
        fill: #ed1c24;
        stroke: #f2f2f0;
        stroke-width: 4px;
      }
    </style>
  </defs>
  <g id="Layer_1" data-name="Layer 1">
    <g>
      <g>
        <rect class="cls-4" x="2" y="2" width="358.7" height="412.02" rx="12.7" ry="12.7"/>
        <rect class="cls-4" x="10.53" y="12.46" width="341.65" height="391.11"/>
      </g>
      <g>
        <path class="cls-1" d="M141.03,352.37l-102.36,2.92V54.47h157.51c27.29,0,50.69,5.71,70.19,17.13,38.44,21.73,57.66,53.06,57.66,94.01,0,18.38-5.01,35.38-15.04,50.97-10.03,15.6-23.68,27.86-40.95,36.77,14.76,11.42,31.75,18.38,50.97,20.89v87.32c-34.26-3.62-72.28-15.73-114.06-36.35-17.55-8.36-33.84-18.38-48.88-30.08v-83.98h10.45c3.9,0,7.38-.42,10.45-1.25,3.06-.84,6.4-2.09,10.03-3.76,17.27-7.52,25.9-19.36,25.9-35.51,0-14.48-6.83-25.21-20.47-32.17-4.74-2.23-10.73-3.9-17.97-5.01-7.25-1.11-14.62-1.67-22.14-1.67l-11.28,1.25v219.35Z"/>
        <path class="cls-2" d="M141.03,352.37l-102.36,2.92V54.47h157.51c27.29,0,50.69,5.71,70.19,17.13,38.44,21.73,57.66,53.06,57.66,94.01,0,18.38-5.01,35.38-15.04,50.97-10.03,15.6-23.68,27.86-40.95,36.77,14.76,11.42,31.75,18.38,50.97,20.89v87.32c-34.26-3.62-72.28-15.73-114.06-36.35-17.55-8.36-33.84-18.38-48.88-30.08v-83.98h10.45c3.9,0,7.38-.42,10.45-1.25,3.06-.84,6.4-2.09,10.03-3.76,17.27-7.52,25.9-19.36,25.9-35.51,0-14.48-6.83-25.21-20.47-32.17-4.74-2.23-10.73-3.9-17.97-5.01-7.25-1.11-14.62-1.67-22.14-1.67l-11.28,1.25v219.35Z"/>
        <path class="cls-3" d="M141.03,352.37l-102.36,2.92V54.47h157.51c27.29,0,50.69,5.71,70.19,17.13,38.44,21.73,57.66,53.06,57.66,94.01,0,18.38-5.01,35.38-15.04,50.97-10.03,15.6-23.68,27.86-40.95,36.77,14.76,11.42,31.75,18.38,50.97,20.89v87.32c-34.26-3.62-72.28-15.73-114.06-36.35-17.55-8.36-33.84-18.38-48.88-30.08v-83.98h10.45c3.9,0,7.38-.42,10.45-1.25,3.06-.84,6.4-2.09,10.03-3.76,17.27-7.52,25.9-19.36,25.9-35.51,0-14.48-6.83-25.21-20.47-32.17-4.74-2.23-10.73-3.9-17.97-5.01-7.25-1.11-14.62-1.67-22.14-1.67l-11.28,1.25v219.35Z"/>
      </g>
    </g>
  </g>
</svg>